<?xml version="1.0" encoding="UTF-8"?> <!-- Generator: Adobe Illustrator 24.2.1, SVG Export Plug-In . SVG Version: 6.00 Build 0) --> <svg xmlns="http://www.w3.org/2000/svg" xmlns:xlink="http://www.w3.org/1999/xlink" version="1.1" id="Layer_1" x="0px" y="0px" viewBox="0 0 120 135" style="enable-background:new 0 0 120 135;" xml:space="preserve"> <style type="text/css"> .st0{fill:#0078D7;} .st1{fill-rule:evenodd;clip-rule:evenodd;fill:#FFFFFF;} </style> <path class="st0" d="M52,4.6L9.6,29.2c-4.9,2.9-8,8.1-8,13.8v49c0,5.7,3,11,8,13.8L52,130.4c4.9,2.9,11,2.9,16,0l42.5-24.5 c4.9-2.9,8-8.1,8-13.8V43c0-5.7-3-11-8-13.8L68,4.6C63,1.8,57,1.8,52,4.6z"></path> <path class="st1" d="M56.3,68.6c0.1,0.3,0.4,0.4,0.7,0.4c0.3,0.1,0.6,0.1,0.9,0.1s0.6,0,0.7-0.1c0.3-0.1,0.4-0.3,0.7-0.6l0.4-0.9 c0.1-0.3,0.1-0.7,0.1-1.3c0-0.4,0-0.7-0.1-1.2s-0.1-0.7-0.4-1c-0.1-0.3-0.4-0.4-0.6-0.7c-0.3-0.1-0.6-0.3-0.9-0.3 c-0.4,0-0.7,0.1-1,0.3c-0.3,0.1-0.4,0.4-0.7,0.6l-0.4,0.9c-0.1,0.3-0.1,0.7-0.1,1.2c0,0.6,0,1,0.1,1.3L56.3,68.6L56.3,68.6z M64.8,80.2c0.4,0,1,0,1.5,0.1c2.3-4.8,7-7.9,12.5-8.2V44.4c0-4.5-9.5-8.8-21.1-8.8c-11.7,0-21.1,4-21.1,8.5v40.1 c0,4,7.8,7.9,17.9,8.5c-0.1-0.6-0.1-1.2-0.1-1.8C54.3,85.1,59,80.2,64.8,80.2L64.8,80.2z M72.5,72h-7.3V60.6h3.4v8.8h4L72.5,72 L72.5,72z M57.7,38.8c8.4,0,15.1,2.1,15.1,4.6c0,2.5-6.7,4.6-15.1,4.6s-15.1-2.1-15.1-4.6C42.5,40.8,49.3,38.8,57.7,38.8z M51.3,69.4c0,0.3-0.1,0.6-0.3,0.9c-0.1,0.3-0.3,0.6-0.6,0.7c-0.3,0.3-0.6,0.4-0.9,0.6c-0.3,0.1-0.7,0.3-1.3,0.4 c-0.4,0.1-1,0.1-1.8,0.1h-1c-0.3,0-0.6,0-0.9-0.1c-0.3,0-0.6-0.1-0.7-0.1c-0.3,0-0.4-0.1-0.6-0.3v-3.1c0.1,0.1,0.4,0.3,0.7,0.4 c0.3,0.1,0.4,0.3,0.7,0.4s0.6,0.1,0.9,0.3c0.3,0.1,0.6,0.1,0.9,0.1c0.3,0,0.4,0,0.6-0.1c0.1,0,0.3-0.1,0.3-0.1 c0.1,0,0.1-0.1,0.1-0.3v-0.3c0-0.1,0-0.3-0.1-0.4c-0.1-0.1-0.1-0.3-0.3-0.3c-0.1-0.1-0.3-0.1-0.6-0.3s-0.4-0.1-0.7-0.3 c-0.4-0.1-0.9-0.4-1.3-0.7c-0.3-0.3-0.6-0.4-0.9-0.7c-0.3-0.3-0.4-0.6-0.4-0.9c-0.1-0.3-0.1-0.7-0.1-1c0-0.6,0.1-1,0.3-1.5 c0.3-0.4,0.6-0.9,0.9-1.2c0.4-0.3,0.9-0.6,1.5-0.7c0.6-0.1,1.2-0.3,1.9-0.3h1c0.3,0,0.6,0,0.9,0.1c0.3,0,0.4,0.1,0.7,0.1 c0.1,0,0.4,0.1,0.6,0.1v3c-0.1-0.1-0.3-0.1-0.6-0.3c-0.1-0.1-0.4-0.1-0.7-0.3c-0.3-0.1-0.4-0.1-0.7-0.1h-0.9c-0.4,0-0.7,0-0.9,0.1 c-0.3,0.1-0.3,0.3-0.3,0.6c0,0.1,0,0.3,0.1,0.3c0,0.1,0.1,0.1,0.3,0.3c0.1,0.1,0.3,0.1,0.4,0.3c0.1,0.1,0.4,0.1,0.7,0.3 c0.4,0.1,0.9,0.4,1.3,0.6c0.4,0.3,0.7,0.4,1,0.7c0.3,0.3,0.4,0.6,0.7,0.9c0.1,0.3,0.3,0.7,0.3,1.3C51.3,68.8,51.3,69.1,51.3,69.4 L51.3,69.4z M52.5,68.8c-0.3-0.8-0.5-1.6-0.4-2.4c0-0.9,0.1-1.8,0.4-2.5c0.3-0.7,0.7-1.3,1.2-1.9c0.4-0.6,1.2-0.9,1.8-1.2 c0.7-0.3,1.5-0.5,2.3-0.4c0.9,0,1.6,0.1,2.2,0.4c0.7,0.3,1.3,0.7,1.8,1.2c0.4,0.4,0.9,1.2,1.2,1.8c0.3,0.7,0.4,1.5,0.4,2.5 c0,0.6,0,1.3-0.3,1.8c-0.1,0.6-0.4,1-0.7,1.5c-0.3,0.4-0.6,0.9-1,1.2c-0.4,0.3-0.7,0.6-1.3,0.9l3.8,3.3h-4.4l-2.5-2.7 c-0.7,0-1.5-0.3-2.1-0.4c-0.6-0.3-1.2-0.7-1.6-1.2C53.3,70.1,52.8,69.5,52.5,68.8L52.5,68.8z M97.3,94.9c0-2.8-2.2-5.2-5-5.5 c0.1-0.9,0.3-1.6,0.3-2.5c0-7.3-5.9-13.2-13.1-13.2c-5.4,0-10.3,3.3-12.2,8.3c-0.7-0.1-1.5-0.3-2.3-0.3c-5.1,0-9.2,4.2-9.2,9.4 c0,5.1,4,9.3,9.1,9.4h28.6v-0.1C95.7,99.7,97.3,97.5,97.3,94.9L97.3,94.9z M92.3,98.9H65c-4.3,0-7.8-3.6-7.8-7.9s3.5-7.9,7.8-7.9 c0.9,0,1.8,0.1,2.5,0.4l0.7,0.3l0.3-0.7c1.6-4.8,6-8,11-8c6.5,0,11.6,5.3,11.6,11.7c0,1.1-0.1,2.1-0.4,3.1l-0.3,1.2l1-0.1h0.4 c2.2,0,4,1.8,4,4C95.8,97,94.3,98.8,92.3,98.9L92.3,98.9z"></path> </svg> 